<svg xmlns="http://www.w3.org/2000/svg" xmlns:xlink="http://www.w3.org/1999/xlink" width="1500" zoomAndPan="magnify" viewBox="0 0 1125 374.999991" height="500" preserveAspectRatio="xMidYMid meet" version="1.0"><defs><g/></defs><g fill="#000000" fill-opacity="1"><g transform="translate(42.926346, 222.779537)"><g><path d="M 4.527344 0 L 55.761719 0 C 90.859375 0 114.777344 -18.539062 114.777344 -49.390625 C 114.777344 -80.667969 91.140625 -99.066406 56.1875 -99.066406 L 4.527344 -99.066406 Z M 54.488281 -77.414062 C 72.601562 -77.414062 83.074219 -68.214844 83.074219 -49.25 C 83.074219 -30.570312 72.601562 -21.371094 54.488281 -21.371094 L 35.238281 -21.371094 L 35.238281 -77.414062 Z M 54.488281 -77.414062 "/></g></g></g><g fill="#000000" fill-opacity="1"><g transform="translate(160.251051, 222.779537)"><g><path d="M 4.527344 0 L 100.484375 0 L 100.484375 -20.519531 L 35.238281 -20.519531 L 35.238281 -40.335938 L 84.347656 -40.335938 L 84.347656 -60.429688 L 35.238281 -60.429688 L 35.238281 -78.121094 L 100.484375 -78.121094 L 100.484375 -99.066406 L 4.527344 -99.066406 Z M 4.527344 0 "/></g></g></g><g fill="#000000" fill-opacity="1"><g transform="translate(263.564722, 222.779537)"><g><path d="M 60.289062 2.121094 C 93.125 2.121094 112.511719 -10.898438 112.511719 -30.003906 C 112.511719 -53.355469 84.914062 -57.316406 62.695312 -60.714844 C 47.550781 -62.980469 34.816406 -64.960938 34.816406 -72.460938 C 34.816406 -77.414062 40.335938 -81.519531 54.769531 -81.519531 C 69.347656 -81.519531 78.972656 -75.714844 81.378906 -65.949219 L 110.8125 -65.949219 C 107.132812 -88.3125 86.332031 -101.191406 53.78125 -101.191406 C 22.21875 -101.191406 3.539062 -88.453125 3.539062 -69.628906 C 3.539062 -46.421875 29.863281 -42.316406 51.941406 -39.203125 C 67.789062 -36.9375 81.378906 -35.097656 81.378906 -27.03125 C 81.378906 -21.792969 74.867188 -17.550781 59.441406 -17.550781 C 44.15625 -17.550781 35.664062 -22.785156 33.398438 -33.683594 L 2.6875 -33.683594 C 6.652344 -10.757812 26.890625 2.121094 60.289062 2.121094 Z M 60.289062 2.121094 "/></g></g></g><g fill="#000000" fill-opacity="1"><g transform="translate(389.184529, 246.254673)"><g><path d="M 7.078125 -29.71875 L 9.953125 -29.4375 C 10.472656 -29.390625 10.613281 -29.105469 10.519531 -28.539062 C 10.046875 -26.230469 9.011719 -22.503906 6.980469 -15.710938 C 5.238281 -9.953125 3.773438 -5.09375 2.546875 -1.980469 C 2.171875 -0.945312 1.652344 -0.753906 0.992188 -0.660156 L -1.273438 -0.425781 L -1.414062 0.140625 C -0.472656 0.140625 2.785156 0 4.765625 0 C 6.792969 0 9.90625 0.140625 11.226562 0.140625 L 11.417969 -0.425781 C 10.519531 -0.519531 9.246094 -0.660156 8.398438 -0.800781 C 7.546875 -0.894531 7.265625 -1.179688 7.453125 -2.027344 C 8.253906 -5.378906 9.480469 -9.765625 10.898438 -14.625 C 11.417969 -14.671875 13.066406 -14.671875 14.953125 -14.671875 C 19.199219 -14.671875 19.578125 -13.492188 18.871094 -9.105469 L 19.390625 -9.105469 C 20.003906 -11.839844 21.511719 -17.125 22.457031 -19.484375 L 21.9375 -19.625 C 20.425781 -16.085938 19.246094 -15.472656 15.425781 -15.472656 C 13.539062 -15.472656 11.699219 -15.472656 11.226562 -15.566406 C 12.597656 -20.332031 14.53125 -26.84375 15.191406 -28.730469 C 15.378906 -29.25 15.804688 -29.390625 16.371094 -29.390625 L 20.050781 -29.390625 C 24.910156 -29.390625 25.570312 -29.011719 25.664062 -26.984375 C 25.664062 -25.617188 25.425781 -23.585938 25.191406 -22.3125 L 25.804688 -22.3125 C 26.183594 -23.492188 27.125 -26.984375 28.539062 -30.523438 C 26.183594 -30.191406 23.257812 -30.144531 19.90625 -30.144531 L 14.105469 -30.144531 C 11.984375 -30.144531 8.679688 -30.285156 7.3125 -30.285156 Z M 7.078125 -29.71875 "/></g></g></g><g fill="#000000" fill-opacity="1"><g transform="translate(412.724847, 246.254673)"><g><path d="M 17.171875 -6.933594 L 16.890625 -6.933594 C 15.378906 -3.066406 12.691406 -0.707031 9.246094 -0.707031 C 6.652344 -0.707031 5.707031 -2.6875 5.707031 -5.425781 C 5.707031 -6.699219 5.945312 -8.351562 6.179688 -9.433594 C 8.632812 -9.8125 12.878906 -10.804688 15.191406 -11.984375 C 16.699219 -12.644531 18.632812 -13.824219 18.632812 -15.945312 C 18.632812 -18.164062 17.550781 -20.425781 13.726562 -20.425781 C 11.605469 -20.425781 9.339844 -19.71875 7.453125 -18.210938 C 3.632812 -15.050781 1.558594 -9.859375 1.558594 -5.613281 C 1.558594 -1.699219 3.492188 0.613281 7.3125 0.613281 C 11.558594 0.613281 15.238281 -1.839844 17.265625 -5.238281 Z M 13.304688 -19.71875 C 14.484375 -19.71875 15.238281 -18.679688 15.238281 -16.890625 C 15.238281 -14.8125 14.292969 -12.785156 12.359375 -11.839844 C 10.992188 -11.273438 8.445312 -10.613281 6.414062 -10.332031 C 8.585938 -18.117188 11.511719 -19.71875 13.210938 -19.71875 Z M 13.304688 -19.71875 "/></g></g></g><g fill="#000000" fill-opacity="1"><g transform="translate(431.217421, 246.254673)"><g><path d="M 16.324219 -20.472656 L 15.097656 -18.679688 C 14.578125 -19.484375 12.925781 -20.425781 10.707031 -20.425781 C 8.820312 -20.425781 7.3125 -20.003906 5.992188 -18.871094 C 4.527344 -17.597656 3.726562 -15.945312 3.726562 -14.011719 C 3.726562 -12.078125 4.574219 -10.804688 5.945312 -9.765625 C 7.265625 -8.632812 9.011719 -7.171875 9.90625 -6.320312 C 10.757812 -5.519531 10.992188 -4.8125 10.992188 -3.773438 C 10.945312 -1.179688 8.917969 -0.09375 6.792969 -0.09375 C 3.914062 -0.09375 2.074219 -1.652344 2.21875 -4.625 C 2.265625 -5.613281 2.5 -7.171875 2.734375 -7.925781 L 2.171875 -7.785156 C 1.414062 -4.90625 0.519531 -2.265625 0 -1.085938 C 1.414062 -0.140625 4.011719 0.613281 6.226562 0.613281 C 8.773438 0.613281 10.804688 -0.1875 12.171875 -1.414062 C 13.304688 -2.359375 14.292969 -3.914062 14.292969 -5.898438 C 14.292969 -7.878906 13.632812 -8.867188 12.171875 -10 C 10.992188 -10.945312 9.058594 -12.5 8.066406 -13.398438 C 7.21875 -14.152344 6.839844 -14.90625 6.839844 -16.132812 C 6.839844 -18.210938 8.304688 -19.765625 10.378906 -19.765625 C 13.351562 -19.765625 14.625 -17.3125 13.679688 -12.972656 L 14.246094 -13.066406 C 14.8125 -15.425781 15.710938 -17.972656 16.652344 -20.097656 Z M 16.324219 -20.472656 "/></g></g></g><g fill="#000000" fill-opacity="1"><g transform="translate(447.3041, 246.254673)"><g><path d="M 12.078125 -5.898438 C 11.226562 -3.585938 9.011719 -0.613281 6.699219 -0.613281 C 5.613281 -0.613281 5.425781 -1.273438 5.660156 -2.3125 C 6.605469 -6.367188 9.433594 -15.613281 10.425781 -18.730469 L 15.191406 -19.011719 L 15.664062 -19.671875 L 10.757812 -19.671875 C 11.558594 -22.171875 12.644531 -25.617188 12.972656 -26.558594 C 11.933594 -26.136719 10.046875 -25.617188 8.539062 -25.472656 C 8.066406 -23.871094 7.5 -21.84375 6.839844 -19.671875 L 3.679688 -19.671875 L 3.300781 -19.011719 L 6.558594 -18.730469 C 5.378906 -14.8125 3.347656 -8.207031 2.074219 -3.914062 C 1.226562 -1.179688 1.605469 0.613281 4.8125 0.613281 C 7.5 0.613281 10.660156 -1.085938 12.453125 -4.765625 Z M 12.078125 -5.898438 "/></g></g></g><g fill="#000000" fill-opacity="1"><g transform="translate(460.465932, 246.254673)"><g><path d="M 10.945312 -29.578125 C 9.8125 -29.578125 8.492188 -28.683594 8.445312 -27.078125 C 8.398438 -25.804688 9.246094 -25.050781 10.285156 -25.050781 C 11.558594 -25.050781 12.691406 -25.992188 12.738281 -27.457031 C 12.785156 -28.730469 12.125 -29.578125 10.992188 -29.578125 Z M 3.300781 -18.730469 C 4.339844 -18.777344 5.613281 -18.730469 6.132812 -18.730469 C 6.652344 -18.730469 6.652344 -18.492188 6.511719 -18.019531 C 5.472656 -14.246094 3.347656 -7.691406 2.171875 -4.011719 C 1.320312 -1.460938 1.320312 0.613281 4.011719 0.613281 C 7.078125 0.613281 9.765625 -1.933594 11.226562 -4.8125 L 10.804688 -5.378906 C 9.8125 -3.207031 7.59375 -0.945312 6.039062 -0.945312 C 5.566406 -0.945312 5.425781 -1.320312 5.660156 -2.40625 C 6.652344 -6.414062 9.953125 -17.125 11.320312 -20.285156 L 11.226562 -20.425781 C 9.246094 -19.8125 5.753906 -19.484375 3.539062 -19.292969 Z M 3.300781 -18.730469 "/></g></g></g><g fill="#000000" fill-opacity="1"><g transform="translate(471.882266, 246.254673)"><g><path d="M 3.867188 -18.730469 C 4.433594 -18.730469 4.625 -18.539062 4.671875 -18.019531 C 4.90625 -14.953125 4.527344 -6.414062 4.199219 0.613281 C 4.953125 0.425781 6.085938 0.1875 6.886719 0.1875 C 9.386719 -2.640625 16.132812 -10.804688 18.398438 -14.578125 C 19.390625 -16.226562 19.765625 -17.550781 19.765625 -18.539062 C 19.765625 -19.71875 19.484375 -20.757812 19.199219 -20.757812 C 18.824219 -20.757812 17.597656 -20.238281 16.792969 -19.71875 C 16.839844 -19.152344 16.890625 -18.492188 16.839844 -17.644531 C 16.558594 -12.972656 12.078125 -6.792969 8.207031 -2.640625 C 8.207031 -4.8125 8.253906 -7.640625 8.351562 -9.859375 C 8.492188 -14.105469 8.585938 -17.550781 9.152344 -20.425781 C 6.933594 -19.71875 4.433594 -19.53125 1.933594 -19.292969 L 1.746094 -18.730469 Z M 3.867188 -18.730469 "/></g></g></g><g fill="#000000" fill-opacity="1"><g transform="translate(490.56354, 246.254673)"><g><path d="M 22.21875 -5.378906 C 21.277344 -3.398438 19.53125 -1.039062 17.972656 -1.039062 C 17.359375 -1.039062 17.21875 -1.746094 17.453125 -2.925781 C 18.398438 -7.265625 20.757812 -15.097656 22.40625 -19.90625 L 18.539062 -19.90625 L 18.019531 -18.117188 C 17.691406 -19.53125 16.511719 -20.425781 14.292969 -20.425781 C 12.644531 -20.425781 10.898438 -19.90625 8.964844 -18.632812 C 4.480469 -15.613281 1.273438 -8.726562 1.273438 -3.820312 C 1.273438 -1.179688 2.3125 0.613281 4.90625 0.613281 C 9.105469 0.613281 12.597656 -3.300781 14.484375 -6.132812 C 14.53125 -6.179688 14.578125 -6.132812 14.578125 -6.179688 C 14.4375 -5.519531 14.152344 -4.671875 14.011719 -4.058594 C 13.492188 -2.3125 12.972656 0.613281 15.898438 0.613281 C 19.199219 0.613281 21.652344 -2.59375 22.644531 -4.859375 Z M 5.425781 -3.679688 C 5.425781 -7.546875 7.59375 -13.492188 10.566406 -17.078125 C 12.171875 -19.011719 13.492188 -19.578125 14.90625 -19.578125 C 16.464844 -19.578125 17.171875 -18.539062 17.171875 -16.558594 C 17.171875 -14.765625 15.519531 -10 14.339844 -7.878906 C 11.886719 -3.160156 9.339844 -1.039062 7.125 -1.039062 C 5.800781 -1.039062 5.425781 -2.453125 5.425781 -3.632812 Z M 5.425781 -3.679688 "/></g></g></g><g fill="#000000" fill-opacity="1"><g transform="translate(513.443409, 246.254673)"><g><path d="M 6.367188 -31.277344 L 8.726562 -31.230469 C 9.339844 -31.183594 9.53125 -31.089844 9.386719 -30.570312 C 8.679688 -27.597656 7.972656 -25.003906 5.519531 -16.839844 C 3.914062 -11.464844 2.785156 -7.832031 1.605469 -3.914062 C 1.039062 -2.074219 0.566406 0.613281 3.585938 0.613281 C 6.320312 0.613281 9.152344 -1.558594 10.898438 -4.8125 L 10.472656 -5.378906 C 9.292969 -2.925781 7.027344 -1.039062 5.800781 -1.039062 C 5.140625 -1.039062 5.046875 -1.507812 5.332031 -2.6875 C 5.898438 -5.238281 7.027344 -9.246094 9.246094 -16.746094 C 11.558594 -24.53125 13.304688 -30.144531 14.339844 -32.691406 C 12.597656 -32.21875 9.480469 -31.84375 6.558594 -31.84375 Z M 6.367188 -31.277344 "/></g></g></g><g fill="#000000" fill-opacity="1"><g transform="translate(524.293644, 246.254673)"><g/></g></g><g fill="#000000" fill-opacity="1"><g transform="translate(532.077534, 246.254673)"><g><path d="M 22.785156 -5.378906 C 21.890625 -3.347656 19.8125 -0.992188 18.492188 -0.992188 C 17.738281 -0.992188 17.925781 -2.027344 18.164062 -3.066406 C 18.539062 -4.71875 19.292969 -7.5 20.378906 -11.371094 C 23.019531 -20.804688 25.898438 -29.765625 26.984375 -32.691406 C 25.378906 -32.316406 21.324219 -31.9375 18.917969 -31.890625 L 18.679688 -31.277344 C 19.90625 -31.277344 20.945312 -31.277344 21.558594 -31.230469 C 21.984375 -31.230469 22.125 -30.992188 21.984375 -30.476562 C 21.699219 -29.058594 20.425781 -24.53125 18.539062 -18.398438 C 17.925781 -19.71875 16.511719 -20.425781 14.4375 -20.425781 C 12.171875 -20.425781 10.285156 -19.625 8.632812 -18.445312 C 4.292969 -15.378906 1.367188 -9.386719 1.367188 -4.339844 C 1.367188 -1.507812 2.5 0.613281 5.332031 0.613281 C 9.8125 0.613281 13.351562 -3.347656 15.097656 -6.226562 C 14.90625 -5.613281 14.71875 -5 14.578125 -4.480469 C 13.773438 -1.507812 14.058594 0.660156 16.226562 0.660156 C 19.246094 0.660156 21.652344 -1.746094 23.164062 -4.8125 Z M 5.566406 -3.914062 C 5.566406 -8.820312 8.160156 -14.484375 10.804688 -17.40625 C 12.171875 -18.871094 13.539062 -19.671875 15.144531 -19.671875 C 17.125 -19.671875 17.644531 -18.066406 17.644531 -16.699219 C 17.644531 -14.71875 16.085938 -10.046875 14.578125 -7.453125 C 12.265625 -3.445312 9.671875 -0.945312 7.59375 -0.945312 C 6.179688 -0.945312 5.566406 -2.359375 5.566406 -3.867188 Z M 5.566406 -3.914062 "/></g></g></g><g fill="#000000" fill-opacity="1"><g transform="translate(555.665001, 246.254673)"><g><path d="M 17.171875 -6.933594 L 16.890625 -6.933594 C 15.378906 -3.066406 12.691406 -0.707031 9.246094 -0.707031 C 6.652344 -0.707031 5.707031 -2.6875 5.707031 -5.425781 C 5.707031 -6.699219 5.945312 -8.351562 6.179688 -9.433594 C 8.632812 -9.8125 12.878906 -10.804688 15.191406 -11.984375 C 16.699219 -12.644531 18.632812 -13.824219 18.632812 -15.945312 C 18.632812 -18.164062 17.550781 -20.425781 13.726562 -20.425781 C 11.605469 -20.425781 9.339844 -19.71875 7.453125 -18.210938 C 3.632812 -15.050781 1.558594 -9.859375 1.558594 -5.613281 C 1.558594 -1.699219 3.492188 0.613281 7.3125 0.613281 C 11.558594 0.613281 15.238281 -1.839844 17.265625 -5.238281 Z M 13.304688 -19.71875 C 14.484375 -19.71875 15.238281 -18.679688 15.238281 -16.890625 C 15.238281 -14.8125 14.292969 -12.785156 12.359375 -11.839844 C 10.992188 -11.273438 8.445312 -10.613281 6.414062 -10.332031 C 8.585938 -18.117188 11.511719 -19.71875 13.210938 -19.71875 Z M 13.304688 -19.71875 "/></g></g></g><g fill="#000000" fill-opacity="1"><g transform="translate(574.157576, 246.254673)"><g/></g></g><g fill="#000000" fill-opacity="1"><g transform="translate(581.941466, 246.254673)"><g><path d="M 6.367188 -31.277344 L 8.726562 -31.230469 C 9.339844 -31.183594 9.53125 -31.089844 9.386719 -30.570312 C 8.679688 -27.597656 7.972656 -25.003906 5.519531 -16.839844 C 3.914062 -11.464844 2.785156 -7.832031 1.605469 -3.914062 C 1.039062 -2.074219 0.566406 0.613281 3.585938 0.613281 C 6.320312 0.613281 9.152344 -1.558594 10.898438 -4.8125 L 10.472656 -5.378906 C 9.292969 -2.925781 7.027344 -1.039062 5.800781 -1.039062 C 5.140625 -1.039062 5.046875 -1.507812 5.332031 -2.6875 C 5.898438 -5.238281 7.027344 -9.246094 9.246094 -16.746094 C 11.558594 -24.53125 13.304688 -30.144531 14.339844 -32.691406 C 12.597656 -32.21875 9.480469 -31.84375 6.558594 -31.84375 Z M 6.367188 -31.277344 "/></g></g></g><g fill="#000000" fill-opacity="1"><g transform="translate(592.791701, 246.254673)"><g><path d="M 10.945312 -29.578125 C 9.8125 -29.578125 8.492188 -28.683594 8.445312 -27.078125 C 8.398438 -25.804688 9.246094 -25.050781 10.285156 -25.050781 C 11.558594 -25.050781 12.691406 -25.992188 12.738281 -27.457031 C 12.785156 -28.730469 12.125 -29.578125 10.992188 -29.578125 Z M 3.300781 -18.730469 C 4.339844 -18.777344 5.613281 -18.730469 6.132812 -18.730469 C 6.652344 -18.730469 6.652344 -18.492188 6.511719 -18.019531 C 5.472656 -14.246094 3.347656 -7.691406 2.171875 -4.011719 C 1.320312 -1.460938 1.320312 0.613281 4.011719 0.613281 C 7.078125 0.613281 9.765625 -1.933594 11.226562 -4.8125 L 10.804688 -5.378906 C 9.8125 -3.207031 7.59375 -0.945312 6.039062 -0.945312 C 5.566406 -0.945312 5.425781 -1.320312 5.660156 -2.40625 C 6.652344 -6.414062 9.953125 -17.125 11.320312 -20.285156 L 11.226562 -20.425781 C 9.246094 -19.8125 5.753906 -19.484375 3.539062 -19.292969 Z M 3.300781 -18.730469 "/></g></g></g><g fill="#000000" fill-opacity="1"><g transform="translate(604.208035, 246.254673)"><g><path d="M 12.078125 -5.898438 C 11.226562 -3.585938 9.011719 -0.613281 6.699219 -0.613281 C 5.613281 -0.613281 5.425781 -1.273438 5.660156 -2.3125 C 6.605469 -6.367188 9.433594 -15.613281 10.425781 -18.730469 L 15.191406 -19.011719 L 15.664062 -19.671875 L 10.757812 -19.671875 C 11.558594 -22.171875 12.644531 -25.617188 12.972656 -26.558594 C 11.933594 -26.136719 10.046875 -25.617188 8.539062 -25.472656 C 8.066406 -23.871094 7.5 -21.84375 6.839844 -19.671875 L 3.679688 -19.671875 L 3.300781 -19.011719 L 6.558594 -18.730469 C 5.378906 -14.8125 3.347656 -8.207031 2.074219 -3.914062 C 1.226562 -1.179688 1.605469 0.613281 4.8125 0.613281 C 7.5 0.613281 10.660156 -1.085938 12.453125 -4.765625 Z M 12.078125 -5.898438 "/></g></g></g><g fill="#000000" fill-opacity="1"><g transform="translate(617.369867, 246.254673)"><g><path d="M 17.171875 -6.933594 L 16.890625 -6.933594 C 15.378906 -3.066406 12.691406 -0.707031 9.246094 -0.707031 C 6.652344 -0.707031 5.707031 -2.6875 5.707031 -5.425781 C 5.707031 -6.699219 5.945312 -8.351562 6.179688 -9.433594 C 8.632812 -9.8125 12.878906 -10.804688 15.191406 -11.984375 C 16.699219 -12.644531 18.632812 -13.824219 18.632812 -15.945312 C 18.632812 -18.164062 17.550781 -20.425781 13.726562 -20.425781 C 11.605469 -20.425781 9.339844 -19.71875 7.453125 -18.210938 C 3.632812 -15.050781 1.558594 -9.859375 1.558594 -5.613281 C 1.558594 -1.699219 3.492188 0.613281 7.3125 0.613281 C 11.558594 0.613281 15.238281 -1.839844 17.265625 -5.238281 Z M 13.304688 -19.71875 C 14.484375 -19.71875 15.238281 -18.679688 15.238281 -16.890625 C 15.238281 -14.8125 14.292969 -12.785156 12.359375 -11.839844 C 10.992188 -11.273438 8.445312 -10.613281 6.414062 -10.332031 C 8.585938 -18.117188 11.511719 -19.71875 13.210938 -19.71875 Z M 13.304688 -19.71875 "/></g></g></g><g fill="#000000" fill-opacity="1"><g transform="translate(635.862442, 246.254673)"><g><path d="M 2.785156 -18.730469 C 3.492188 -18.730469 4.671875 -18.679688 5.238281 -18.679688 C 5.753906 -18.679688 5.945312 -18.492188 5.851562 -17.832031 C 5.378906 -14.199219 2.785156 -5.238281 0.707031 0.425781 C 1.652344 0.28125 3.300781 0.09375 4.90625 0.046875 C 6.039062 -3.867188 7.265625 -7.40625 8.351562 -10.046875 C 9.953125 -13.773438 12.171875 -17.359375 13.917969 -17.359375 C 14.578125 -17.359375 14.71875 -16.9375 14.859375 -16.132812 C 15 -15.613281 15.425781 -15.285156 15.992188 -15.285156 C 17.078125 -15.285156 18.304688 -16.324219 18.304688 -18.257812 C 18.304688 -19.105469 17.785156 -20.425781 16.179688 -20.425781 C 13.445312 -20.425781 10.992188 -17.359375 8.445312 -11.933594 L 8.304688 -11.933594 C 9.058594 -14.859375 10.09375 -18.871094 10.332031 -20.425781 C 8.351562 -19.71875 5.332031 -19.390625 3.113281 -19.246094 Z M 2.785156 -18.730469 "/></g></g></g><g fill="#000000" fill-opacity="1"><g transform="translate(652.23217, 246.254673)"><g><path d="M 22.21875 -5.378906 C 21.277344 -3.398438 19.53125 -1.039062 17.972656 -1.039062 C 17.359375 -1.039062 17.21875 -1.746094 17.453125 -2.925781 C 18.398438 -7.265625 20.757812 -15.097656 22.40625 -19.90625 L 18.539062 -19.90625 L 18.019531 -18.117188 C 17.691406 -19.53125 16.511719 -20.425781 14.292969 -20.425781 C 12.644531 -20.425781 10.898438 -19.90625 8.964844 -18.632812 C 4.480469 -15.613281 1.273438 -8.726562 1.273438 -3.820312 C 1.273438 -1.179688 2.3125 0.613281 4.90625 0.613281 C 9.105469 0.613281 12.597656 -3.300781 14.484375 -6.132812 C 14.53125 -6.179688 14.578125 -6.132812 14.578125 -6.179688 C 14.4375 -5.519531 14.152344 -4.671875 14.011719 -4.058594 C 13.492188 -2.3125 12.972656 0.613281 15.898438 0.613281 C 19.199219 0.613281 21.652344 -2.59375 22.644531 -4.859375 Z M 5.425781 -3.679688 C 5.425781 -7.546875 7.59375 -13.492188 10.566406 -17.078125 C 12.171875 -19.011719 13.492188 -19.578125 14.90625 -19.578125 C 16.464844 -19.578125 17.171875 -18.539062 17.171875 -16.558594 C 17.171875 -14.765625 15.519531 -10 14.339844 -7.878906 C 11.886719 -3.160156 9.339844 -1.039062 7.125 -1.039062 C 5.800781 -1.039062 5.425781 -2.453125 5.425781 -3.632812 Z M 5.425781 -3.679688 "/></g></g></g><g fill="#000000" fill-opacity="1"><g transform="translate(675.112039, 246.254673)"><g><path d="M 12.078125 -5.898438 C 11.226562 -3.585938 9.011719 -0.613281 6.699219 -0.613281 C 5.613281 -0.613281 5.425781 -1.273438 5.660156 -2.3125 C 6.605469 -6.367188 9.433594 -15.613281 10.425781 -18.730469 L 15.191406 -19.011719 L 15.664062 -19.671875 L 10.757812 -19.671875 C 11.558594 -22.171875 12.644531 -25.617188 12.972656 -26.558594 C 11.933594 -26.136719 10.046875 -25.617188 8.539062 -25.472656 C 8.066406 -23.871094 7.5 -21.84375 6.839844 -19.671875 L 3.679688 -19.671875 L 3.300781 -19.011719 L 6.558594 -18.730469 C 5.378906 -14.8125 3.347656 -8.207031 2.074219 -3.914062 C 1.226562 -1.179688 1.605469 0.613281 4.8125 0.613281 C 7.5 0.613281 10.660156 -1.085938 12.453125 -4.765625 Z M 12.078125 -5.898438 "/></g></g></g><g fill="#000000" fill-opacity="1"><g transform="translate(688.273871, 246.254673)"><g><path d="M 22.40625 -5.425781 C 21.230469 -2.925781 19.105469 -0.894531 17.878906 -0.894531 C 17.21875 -0.894531 17.125 -1.414062 17.40625 -2.59375 C 18.539062 -7.785156 21.371094 -16.464844 22.972656 -20.425781 C 20.710938 -19.71875 17.785156 -19.390625 15.425781 -19.246094 L 15.144531 -18.679688 L 17.644531 -18.730469 C 18.257812 -18.730469 18.304688 -18.445312 18.164062 -18.019531 C 17.644531 -16.132812 16.652344 -12.925781 15.664062 -10.09375 C 14.199219 -6.132812 10.613281 -0.992188 6.933594 -0.992188 C 5.472656 -0.992188 5.519531 -2.265625 5.851562 -3.726562 C 7.125 -8.917969 10.238281 -18.632812 11.320312 -20.425781 C 9.058594 -19.71875 6.226562 -19.484375 3.726562 -19.246094 L 3.398438 -18.679688 L 5.851562 -18.730469 C 6.511719 -18.730469 6.558594 -18.445312 6.414062 -17.972656 C 6.132812 -17.078125 3.347656 -8.539062 2.121094 -4.339844 C 1.273438 -1.273438 1.652344 0.613281 5 0.613281 C 8.539062 0.613281 12.078125 -2.21875 14.625 -6.039062 C 14.246094 -4.90625 14.105469 -4.339844 13.917969 -3.773438 C 13.351562 -1.746094 13.019531 0.613281 15.757812 0.613281 C 18.964844 0.613281 21.464844 -2.171875 22.832031 -4.90625 Z M 22.40625 -5.425781 "/></g></g></g><g fill="#000000" fill-opacity="1"><g transform="translate(711.200889, 246.254673)"><g><path d="M 2.785156 -18.730469 C 3.492188 -18.730469 4.671875 -18.679688 5.238281 -18.679688 C 5.753906 -18.679688 5.945312 -18.492188 5.851562 -17.832031 C 5.378906 -14.199219 2.785156 -5.238281 0.707031 0.425781 C 1.652344 0.28125 3.300781 0.09375 4.90625 0.046875 C 6.039062 -3.867188 7.265625 -7.40625 8.351562 -10.046875 C 9.953125 -13.773438 12.171875 -17.359375 13.917969 -17.359375 C 14.578125 -17.359375 14.71875 -16.9375 14.859375 -16.132812 C 15 -15.613281 15.425781 -15.285156 15.992188 -15.285156 C 17.078125 -15.285156 18.304688 -16.324219 18.304688 -18.257812 C 18.304688 -19.105469 17.785156 -20.425781 16.179688 -20.425781 C 13.445312 -20.425781 10.992188 -17.359375 8.445312 -11.933594 L 8.304688 -11.933594 C 9.058594 -14.859375 10.09375 -18.871094 10.332031 -20.425781 C 8.351562 -19.71875 5.332031 -19.390625 3.113281 -19.246094 Z M 2.785156 -18.730469 "/></g></g></g><g fill="#000000" fill-opacity="1"><g transform="translate(727.570617, 246.254673)"><g><path d="M 22.21875 -5.378906 C 21.277344 -3.398438 19.53125 -1.039062 17.972656 -1.039062 C 17.359375 -1.039062 17.21875 -1.746094 17.453125 -2.925781 C 18.398438 -7.265625 20.757812 -15.097656 22.40625 -19.90625 L 18.539062 -19.90625 L 18.019531 -18.117188 C 17.691406 -19.53125 16.511719 -20.425781 14.292969 -20.425781 C 12.644531 -20.425781 10.898438 -19.90625 8.964844 -18.632812 C 4.480469 -15.613281 1.273438 -8.726562 1.273438 -3.820312 C 1.273438 -1.179688 2.3125 0.613281 4.90625 0.613281 C 9.105469 0.613281 12.597656 -3.300781 14.484375 -6.132812 C 14.53125 -6.179688 14.578125 -6.132812 14.578125 -6.179688 C 14.4375 -5.519531 14.152344 -4.671875 14.011719 -4.058594 C 13.492188 -2.3125 12.972656 0.613281 15.898438 0.613281 C 19.199219 0.613281 21.652344 -2.59375 22.644531 -4.859375 Z M 5.425781 -3.679688 C 5.425781 -7.546875 7.59375 -13.492188 10.566406 -17.078125 C 12.171875 -19.011719 13.492188 -19.578125 14.90625 -19.578125 C 16.464844 -19.578125 17.171875 -18.539062 17.171875 -16.558594 C 17.171875 -14.765625 15.519531 -10 14.339844 -7.878906 C 11.886719 -3.160156 9.339844 -1.039062 7.125 -1.039062 C 5.800781 -1.039062 5.425781 -2.453125 5.425781 -3.632812 Z M 5.425781 -3.679688 "/></g></g></g><g fill="#000000" fill-opacity="1"><g transform="translate(750.450486, 246.254673)"><g/></g></g><g fill="#000000" fill-opacity="1"><g transform="translate(758.234376, 246.254673)"><g><path d="M 6.367188 -31.277344 L 8.726562 -31.230469 C 9.339844 -31.183594 9.53125 -31.089844 9.386719 -30.570312 C 8.679688 -27.597656 7.972656 -25.003906 5.519531 -16.839844 C 3.914062 -11.464844 2.785156 -7.832031 1.605469 -3.914062 C 1.039062 -2.074219 0.566406 0.613281 3.585938 0.613281 C 6.320312 0.613281 9.152344 -1.558594 10.898438 -4.8125 L 10.472656 -5.378906 C 9.292969 -2.925781 7.027344 -1.039062 5.800781 -1.039062 C 5.140625 -1.039062 5.046875 -1.507812 5.332031 -2.6875 C 5.898438 -5.238281 7.027344 -9.246094 9.246094 -16.746094 C 11.558594 -24.53125 13.304688 -30.144531 14.339844 -32.691406 C 12.597656 -32.21875 9.480469 -31.84375 6.558594 -31.84375 Z M 6.367188 -31.277344 "/></g></g></g><g fill="#000000" fill-opacity="1"><g transform="translate(769.084611, 246.254673)"><g><path d="M 22.21875 -5.378906 C 21.277344 -3.398438 19.53125 -1.039062 17.972656 -1.039062 C 17.359375 -1.039062 17.21875 -1.746094 17.453125 -2.925781 C 18.398438 -7.265625 20.757812 -15.097656 22.40625 -19.90625 L 18.539062 -19.90625 L 18.019531 -18.117188 C 17.691406 -19.53125 16.511719 -20.425781 14.292969 -20.425781 C 12.644531 -20.425781 10.898438 -19.90625 8.964844 -18.632812 C 4.480469 -15.613281 1.273438 -8.726562 1.273438 -3.820312 C 1.273438 -1.179688 2.3125 0.613281 4.90625 0.613281 C 9.105469 0.613281 12.597656 -3.300781 14.484375 -6.132812 C 14.53125 -6.179688 14.578125 -6.132812 14.578125 -6.179688 C 14.4375 -5.519531 14.152344 -4.671875 14.011719 -4.058594 C 13.492188 -2.3125 12.972656 0.613281 15.898438 0.613281 C 19.199219 0.613281 21.652344 -2.59375 22.644531 -4.859375 Z M 5.425781 -3.679688 C 5.425781 -7.546875 7.59375 -13.492188 10.566406 -17.078125 C 12.171875 -19.011719 13.492188 -19.578125 14.90625 -19.578125 C 16.464844 -19.578125 17.171875 -18.539062 17.171875 -16.558594 C 17.171875 -14.765625 15.519531 -10 14.339844 -7.878906 C 11.886719 -3.160156 9.339844 -1.039062 7.125 -1.039062 C 5.800781 -1.039062 5.425781 -2.453125 5.425781 -3.632812 Z M 5.425781 -3.679688 "/></g></g></g><g fill="#000000" fill-opacity="1"><g transform="translate(791.96448, 246.254673)"><g><path d="M 12.078125 -5.898438 C 11.226562 -3.585938 9.011719 -0.613281 6.699219 -0.613281 C 5.613281 -0.613281 5.425781 -1.273438 5.660156 -2.3125 C 6.605469 -6.367188 9.433594 -15.613281 10.425781 -18.730469 L 15.191406 -19.011719 L 15.664062 -19.671875 L 10.757812 -19.671875 C 11.558594 -22.171875 12.644531 -25.617188 12.972656 -26.558594 C 11.933594 -26.136719 10.046875 -25.617188 8.539062 -25.472656 C 8.066406 -23.871094 7.5 -21.84375 6.839844 -19.671875 L 3.679688 -19.671875 L 3.300781 -19.011719 L 6.558594 -18.730469 C 5.378906 -14.8125 3.347656 -8.207031 2.074219 -3.914062 C 1.226562 -1.179688 1.605469 0.613281 4.8125 0.613281 C 7.5 0.613281 10.660156 -1.085938 12.453125 -4.765625 Z M 12.078125 -5.898438 "/></g></g></g><g fill="#000000" fill-opacity="1"><g transform="translate(805.126313, 246.254673)"><g><path d="M 10.945312 -29.578125 C 9.8125 -29.578125 8.492188 -28.683594 8.445312 -27.078125 C 8.398438 -25.804688 9.246094 -25.050781 10.285156 -25.050781 C 11.558594 -25.050781 12.691406 -25.992188 12.738281 -27.457031 C 12.785156 -28.730469 12.125 -29.578125 10.992188 -29.578125 Z M 3.300781 -18.730469 C 4.339844 -18.777344 5.613281 -18.730469 6.132812 -18.730469 C 6.652344 -18.730469 6.652344 -18.492188 6.511719 -18.019531 C 5.472656 -14.246094 3.347656 -7.691406 2.171875 -4.011719 C 1.320312 -1.460938 1.320312 0.613281 4.011719 0.613281 C 7.078125 0.613281 9.765625 -1.933594 11.226562 -4.8125 L 10.804688 -5.378906 C 9.8125 -3.207031 7.59375 -0.945312 6.039062 -0.945312 C 5.566406 -0.945312 5.425781 -1.320312 5.660156 -2.40625 C 6.652344 -6.414062 9.953125 -17.125 11.320312 -20.285156 L 11.226562 -20.425781 C 9.246094 -19.8125 5.753906 -19.484375 3.539062 -19.292969 Z M 3.300781 -18.730469 "/></g></g></g><g fill="#000000" fill-opacity="1"><g transform="translate(816.542647, 246.254673)"><g><path d="M 22.3125 -5.332031 C 21.277344 -3.207031 19.152344 -1.085938 17.738281 -1.085938 C 17.21875 -1.085938 16.890625 -1.507812 17.265625 -2.6875 C 18.445312 -6.320312 20.332031 -11.226562 21.511719 -14.671875 C 22.03125 -16.132812 22.597656 -18.679688 21.417969 -19.71875 C 20.898438 -20.191406 20.238281 -20.425781 19.152344 -20.425781 C 14.625 -20.425781 10.757812 -15.945312 8.351562 -12.125 C 9.199219 -14.953125 10.09375 -18.117188 10.660156 -20.425781 C 8.398438 -19.859375 5.707031 -19.484375 3.347656 -19.292969 L 3.160156 -18.777344 L 5.707031 -18.777344 C 6.226562 -18.777344 6.320312 -18.585938 6.179688 -18.019531 C 5.332031 -13.964844 2.832031 -5.753906 0.566406 0.425781 C 1.605469 0.234375 3.300781 0.09375 4.625 0.046875 C 5.519531 -3.113281 6.226562 -4.953125 6.933594 -6.886719 C 8.445312 -11.085938 12.832031 -18.824219 17.03125 -18.824219 C 18.539062 -18.824219 18.445312 -17.171875 18.019531 -15.992188 C 16.890625 -12.691406 15.097656 -7.878906 13.824219 -4.292969 C 12.878906 -1.605469 12.972656 0.613281 15.613281 0.613281 C 18.257812 0.613281 21.179688 -1.652344 22.738281 -4.8125 Z M 22.3125 -5.332031 "/></g></g></g><g fill="#000000" fill-opacity="1"><g transform="translate(839.847064, 246.254673)"><g><path d="M 13.824219 -20.425781 C 11.558594 -20.425781 9.578125 -19.71875 7.785156 -18.492188 C 4.011719 -15.851562 1.605469 -10.285156 1.605469 -5.851562 C 1.605469 -0.472656 5.09375 0.613281 8.351562 0.613281 C 10.898438 0.613281 12.738281 0 14.53125 -1.273438 C 18.164062 -3.726562 20.472656 -9.292969 20.472656 -13.679688 C 20.472656 -18.117188 18.210938 -20.425781 13.917969 -20.425781 Z M 13.964844 -19.765625 C 15.992188 -19.765625 16.699219 -18.210938 16.699219 -16.039062 C 16.699219 -12.078125 14.578125 -5.09375 12.03125 -2.027344 C 10.851562 -0.613281 9.671875 -0.046875 8.253906 -0.046875 C 6.746094 -0.046875 5.425781 -1.132812 5.425781 -4.058594 C 5.425781 -7.691406 7.359375 -14.058594 9.625 -17.125 C 10.898438 -18.824219 12.265625 -19.765625 13.917969 -19.765625 Z M 13.964844 -19.765625 "/></g></g></g><g fill="#000000" fill-opacity="1"><g transform="translate(861.122985, 246.254673)"><g><path d="M 22.21875 -5.378906 C 21.277344 -3.398438 19.53125 -1.039062 17.972656 -1.039062 C 17.359375 -1.039062 17.21875 -1.746094 17.453125 -2.925781 C 18.398438 -7.265625 20.757812 -15.097656 22.40625 -19.90625 L 18.539062 -19.90625 L 18.019531 -18.117188 C 17.691406 -19.53125 16.511719 -20.425781 14.292969 -20.425781 C 12.644531 -20.425781 10.898438 -19.90625 8.964844 -18.632812 C 4.480469 -15.613281 1.273438 -8.726562 1.273438 -3.820312 C 1.273438 -1.179688 2.3125 0.613281 4.90625 0.613281 C 9.105469 0.613281 12.597656 -3.300781 14.484375 -6.132812 C 14.53125 -6.179688 14.578125 -6.132812 14.578125 -6.179688 C 14.4375 -5.519531 14.152344 -4.671875 14.011719 -4.058594 C 13.492188 -2.3125 12.972656 0.613281 15.898438 0.613281 C 19.199219 0.613281 21.652344 -2.59375 22.644531 -4.859375 Z M 5.425781 -3.679688 C 5.425781 -7.546875 7.59375 -13.492188 10.566406 -17.078125 C 12.171875 -19.011719 13.492188 -19.578125 14.90625 -19.578125 C 16.464844 -19.578125 17.171875 -18.539062 17.171875 -16.558594 C 17.171875 -14.765625 15.519531 -10 14.339844 -7.878906 C 11.886719 -3.160156 9.339844 -1.039062 7.125 -1.039062 C 5.800781 -1.039062 5.425781 -2.453125 5.425781 -3.632812 Z M 5.425781 -3.679688 "/></g></g></g><g fill="#000000" fill-opacity="1"><g transform="translate(884.002854, 246.254673)"><g><path d="M 34.25 -5.332031 C 33.257812 -3.253906 31.089844 -1.039062 29.625 -1.039062 C 28.964844 -1.039062 28.871094 -1.605469 29.203125 -2.59375 C 30.097656 -5.472656 32.269531 -11.039062 33.542969 -14.671875 C 34.011719 -15.992188 34.671875 -18.445312 33.683594 -19.578125 C 33.210938 -20.050781 32.503906 -20.425781 31.371094 -20.425781 C 26.796875 -20.425781 23.117188 -15.992188 20.617188 -12.3125 C 20.992188 -13.632812 21.277344 -14.339844 21.558594 -15.519531 C 22.125 -17.597656 22.21875 -20.425781 19.246094 -20.425781 C 14.625 -20.425781 10.945312 -15.851562 8.492188 -12.3125 C 9.105469 -14.339844 10.238281 -18.210938 10.757812 -20.425781 C 8.445312 -19.8125 5.707031 -19.578125 3.347656 -19.292969 L 3.253906 -18.777344 L 5.707031 -18.777344 C 6.320312 -18.777344 6.414062 -18.492188 6.273438 -17.832031 C 5.425781 -14.105469 2.925781 -5.992188 0.519531 0.425781 C 1.507812 0.28125 3.207031 0.09375 4.625 0.046875 C 5.425781 -2.453125 6.132812 -4.527344 6.699219 -6.179688 C 9.058594 -12.972656 13.917969 -18.730469 16.984375 -18.730469 C 18.304688 -18.730469 18.304688 -17.503906 17.972656 -16.226562 C 17.125 -12.738281 14.199219 -4.246094 12.453125 0.425781 C 13.539062 0.234375 15.238281 0.09375 16.652344 0.046875 C 17.453125 -2.6875 18.164062 -4.625 18.777344 -6.320312 C 20.710938 -11.699219 25.472656 -18.730469 29.152344 -18.730469 C 30.378906 -18.730469 30.664062 -17.550781 30.191406 -16.179688 C 29.058594 -13.019531 27.21875 -8.304688 25.757812 -4.339844 C 24.8125 -1.792969 24.484375 0.613281 27.457031 0.613281 C 30.144531 0.613281 33.164062 -1.652344 34.671875 -4.765625 Z M 34.25 -5.332031 "/></g></g></g><g fill="#000000" fill-opacity="1"><g transform="translate(919.242556, 246.254673)"><g><path d="M 17.171875 -6.933594 L 16.890625 -6.933594 C 15.378906 -3.066406 12.691406 -0.707031 9.246094 -0.707031 C 6.652344 -0.707031 5.707031 -2.6875 5.707031 -5.425781 C 5.707031 -6.699219 5.945312 -8.351562 6.179688 -9.433594 C 8.632812 -9.8125 12.878906 -10.804688 15.191406 -11.984375 C 16.699219 -12.644531 18.632812 -13.824219 18.632812 -15.945312 C 18.632812 -18.164062 17.550781 -20.425781 13.726562 -20.425781 C 11.605469 -20.425781 9.339844 -19.71875 7.453125 -18.210938 C 3.632812 -15.050781 1.558594 -9.859375 1.558594 -5.613281 C 1.558594 -1.699219 3.492188 0.613281 7.3125 0.613281 C 11.558594 0.613281 15.238281 -1.839844 17.265625 -5.238281 Z M 13.304688 -19.71875 C 14.484375 -19.71875 15.238281 -18.679688 15.238281 -16.890625 C 15.238281 -14.8125 14.292969 -12.785156 12.359375 -11.839844 C 10.992188 -11.273438 8.445312 -10.613281 6.414062 -10.332031 C 8.585938 -18.117188 11.511719 -19.71875 13.210938 -19.71875 Z M 13.304688 -19.71875 "/></g></g></g><g fill="#000000" fill-opacity="1"><g transform="translate(937.73513, 246.254673)"><g><path d="M 2.785156 -18.730469 C 3.492188 -18.730469 4.671875 -18.679688 5.238281 -18.679688 C 5.753906 -18.679688 5.945312 -18.492188 5.851562 -17.832031 C 5.378906 -14.199219 2.785156 -5.238281 0.707031 0.425781 C 1.652344 0.28125 3.300781 0.09375 4.90625 0.046875 C 6.039062 -3.867188 7.265625 -7.40625 8.351562 -10.046875 C 9.953125 -13.773438 12.171875 -17.359375 13.917969 -17.359375 C 14.578125 -17.359375 14.71875 -16.9375 14.859375 -16.132812 C 15 -15.613281 15.425781 -15.285156 15.992188 -15.285156 C 17.078125 -15.285156 18.304688 -16.324219 18.304688 -18.257812 C 18.304688 -19.105469 17.785156 -20.425781 16.179688 -20.425781 C 13.445312 -20.425781 10.992188 -17.359375 8.445312 -11.933594 L 8.304688 -11.933594 C 9.058594 -14.859375 10.09375 -18.871094 10.332031 -20.425781 C 8.351562 -19.71875 5.332031 -19.390625 3.113281 -19.246094 Z M 2.785156 -18.730469 "/></g></g></g><g fill="#000000" fill-opacity="1"><g transform="translate(954.104858, 246.254673)"><g><path d="M 10.945312 -29.578125 C 9.8125 -29.578125 8.492188 -28.683594 8.445312 -27.078125 C 8.398438 -25.804688 9.246094 -25.050781 10.285156 -25.050781 C 11.558594 -25.050781 12.691406 -25.992188 12.738281 -27.457031 C 12.785156 -28.730469 12.125 -29.578125 10.992188 -29.578125 Z M 3.300781 -18.730469 C 4.339844 -18.777344 5.613281 -18.730469 6.132812 -18.730469 C 6.652344 -18.730469 6.652344 -18.492188 6.511719 -18.019531 C 5.472656 -14.246094 3.347656 -7.691406 2.171875 -4.011719 C 1.320312 -1.460938 1.320312 0.613281 4.011719 0.613281 C 7.078125 0.613281 9.765625 -1.933594 11.226562 -4.8125 L 10.804688 -5.378906 C 9.8125 -3.207031 7.59375 -0.945312 6.039062 -0.945312 C 5.566406 -0.945312 5.425781 -1.320312 5.660156 -2.40625 C 6.652344 -6.414062 9.953125 -17.125 11.320312 -20.285156 L 11.226562 -20.425781 C 9.246094 -19.8125 5.753906 -19.484375 3.539062 -19.292969 Z M 3.300781 -18.730469 "/></g></g></g><g fill="#000000" fill-opacity="1"><g transform="translate(965.521192, 246.254673)"><g><path d="M 17.40625 -6.933594 L 17.171875 -6.933594 C 15.566406 -2.972656 13.066406 -0.660156 9.53125 -0.660156 C 7.265625 -0.660156 5.851562 -2.265625 5.851562 -5.378906 C 5.851562 -8.585938 6.746094 -12.078125 8.207031 -14.859375 C 10 -18.257812 11.933594 -19.71875 13.871094 -19.71875 C 15.519531 -19.71875 16.039062 -18.917969 16.039062 -17.691406 C 16.039062 -17.03125 15.804688 -16.417969 15.472656 -15.710938 C 15.285156 -15.332031 15.191406 -14.765625 15.472656 -14.4375 C 15.710938 -13.964844 16.226562 -13.726562 16.792969 -13.726562 C 17.691406 -13.726562 19.105469 -14.578125 19.105469 -16.511719 C 19.105469 -18.730469 17.644531 -20.425781 14.058594 -20.425781 C 11.464844 -20.425781 9.53125 -19.390625 7.738281 -18.117188 C 3.914062 -15.191406 1.699219 -10.191406 1.699219 -5.800781 C 1.699219 -1.558594 3.773438 0.613281 7.925781 0.613281 C 12.359375 0.613281 15.945312 -2.546875 17.40625 -5.1875 Z M 17.40625 -6.933594 "/></g></g></g><g fill="#000000" fill-opacity="1"><g transform="translate(984.155317, 246.254673)"><g><path d="M 22.21875 -5.378906 C 21.277344 -3.398438 19.53125 -1.039062 17.972656 -1.039062 C 17.359375 -1.039062 17.21875 -1.746094 17.453125 -2.925781 C 18.398438 -7.265625 20.757812 -15.097656 22.40625 -19.90625 L 18.539062 -19.90625 L 18.019531 -18.117188 C 17.691406 -19.53125 16.511719 -20.425781 14.292969 -20.425781 C 12.644531 -20.425781 10.898438 -19.90625 8.964844 -18.632812 C 4.480469 -15.613281 1.273438 -8.726562 1.273438 -3.820312 C 1.273438 -1.179688 2.3125 0.613281 4.90625 0.613281 C 9.105469 0.613281 12.597656 -3.300781 14.484375 -6.132812 C 14.53125 -6.179688 14.578125 -6.132812 14.578125 -6.179688 C 14.4375 -5.519531 14.152344 -4.671875 14.011719 -4.058594 C 13.492188 -2.3125 12.972656 0.613281 15.898438 0.613281 C 19.199219 0.613281 21.652344 -2.59375 22.644531 -4.859375 Z M 5.425781 -3.679688 C 5.425781 -7.546875 7.59375 -13.492188 10.566406 -17.078125 C 12.171875 -19.011719 13.492188 -19.578125 14.90625 -19.578125 C 16.464844 -19.578125 17.171875 -18.539062 17.171875 -16.558594 C 17.171875 -14.765625 15.519531 -10 14.339844 -7.878906 C 11.886719 -3.160156 9.339844 -1.039062 7.125 -1.039062 C 5.800781 -1.039062 5.425781 -2.453125 5.425781 -3.632812 Z M 5.425781 -3.679688 "/></g></g></g><g fill="#000000" fill-opacity="1"><g transform="translate(1007.035186, 246.254673)"><g><path d="M 22.3125 -5.332031 C 21.277344 -3.207031 19.152344 -1.085938 17.738281 -1.085938 C 17.21875 -1.085938 16.890625 -1.507812 17.265625 -2.6875 C 18.445312 -6.320312 20.332031 -11.226562 21.511719 -14.671875 C 22.03125 -16.132812 22.597656 -18.679688 21.417969 -19.71875 C 20.898438 -20.191406 20.238281 -20.425781 19.152344 -20.425781 C 14.625 -20.425781 10.757812 -15.945312 8.351562 -12.125 C 9.199219 -14.953125 10.09375 -18.117188 10.660156 -20.425781 C 8.398438 -19.859375 5.707031 -19.484375 3.347656 -19.292969 L 3.160156 -18.777344 L 5.707031 -18.777344 C 6.226562 -18.777344 6.320312 -18.585938 6.179688 -18.019531 C 5.332031 -13.964844 2.832031 -5.753906 0.566406 0.425781 C 1.605469 0.234375 3.300781 0.09375 4.625 0.046875 C 5.519531 -3.113281 6.226562 -4.953125 6.933594 -6.886719 C 8.445312 -11.085938 12.832031 -18.824219 17.03125 -18.824219 C 18.539062 -18.824219 18.445312 -17.171875 18.019531 -15.992188 C 16.890625 -12.691406 15.097656 -7.878906 13.824219 -4.292969 C 12.878906 -1.605469 12.972656 0.613281 15.613281 0.613281 C 18.257812 0.613281 21.179688 -1.652344 22.738281 -4.8125 Z M 22.3125 -5.332031 "/></g></g></g><g fill="#000000" fill-opacity="1"><g transform="translate(1030.339603, 246.254673)"><g><path d="M 22.21875 -5.378906 C 21.277344 -3.398438 19.53125 -1.039062 17.972656 -1.039062 C 17.359375 -1.039062 17.21875 -1.746094 17.453125 -2.925781 C 18.398438 -7.265625 20.757812 -15.097656 22.40625 -19.90625 L 18.539062 -19.90625 L 18.019531 -18.117188 C 17.691406 -19.53125 16.511719 -20.425781 14.292969 -20.425781 C 12.644531 -20.425781 10.898438 -19.90625 8.964844 -18.632812 C 4.480469 -15.613281 1.273438 -8.726562 1.273438 -3.820312 C 1.273438 -1.179688 2.3125 0.613281 4.90625 0.613281 C 9.105469 0.613281 12.597656 -3.300781 14.484375 -6.132812 C 14.53125 -6.179688 14.578125 -6.132812 14.578125 -6.179688 C 14.4375 -5.519531 14.152344 -4.671875 14.011719 -4.058594 C 13.492188 -2.3125 12.972656 0.613281 15.898438 0.613281 C 19.199219 0.613281 21.652344 -2.59375 22.644531 -4.859375 Z M 5.425781 -3.679688 C 5.425781 -7.546875 7.59375 -13.492188 10.566406 -17.078125 C 12.171875 -19.011719 13.492188 -19.578125 14.90625 -19.578125 C 16.464844 -19.578125 17.171875 -18.539062 17.171875 -16.558594 C 17.171875 -14.765625 15.519531 -10 14.339844 -7.878906 C 11.886719 -3.160156 9.339844 -1.039062 7.125 -1.039062 C 5.800781 -1.039062 5.425781 -2.453125 5.425781 -3.632812 Z M 5.425781 -3.679688 "/></g></g></g><g fill="#000000" fill-opacity="1"><g transform="translate(368.339022, 201.438292)"><g><path d="M 4.527344 0 L 31.417969 0 L 31.277344 -49.109375 L 31.136719 -69.773438 L 38.070312 -49.109375 L 55.195312 0 L 82.226562 0 L 99.351562 -49.109375 L 106.285156 -69.773438 L 106.144531 -49.109375 L 105.859375 0 L 133.882812 0 L 133.882812 -99.066406 L 91.707031 -99.066406 L 80.386719 -66.375 L 69.0625 -33.542969 L 58.027344 -66.375 L 46.5625 -99.066406 L 4.527344 -99.066406 Z M 4.527344 0 "/></g></g></g><g fill="#000000" fill-opacity="1"><g transform="translate(506.609553, 201.438292)"><g><path d="M -0.992188 0 L 30.285156 0 L 38.496094 -19.390625 L 84.492188 -19.390625 L 92.699219 0 L 125.957031 0 L 79.820312 -99.066406 L 45.148438 -99.066406 Z M 61.5625 -74.300781 L 76.421875 -38.210938 L 46.421875 -38.210938 Z M 61.5625 -74.300781 "/></g></g></g><g fill="#000000" fill-opacity="1"><g transform="translate(631.576648, 201.438292)"><g><path d="M 4.527344 0 L 55.761719 0 C 90.859375 0 114.777344 -18.539062 114.777344 -49.390625 C 114.777344 -80.667969 91.140625 -99.066406 56.1875 -99.066406 L 4.527344 -99.066406 Z M 54.488281 -77.414062 C 72.601562 -77.414062 83.074219 -68.214844 83.074219 -49.25 C 83.074219 -30.570312 72.601562 -21.371094 54.488281 -21.371094 L 35.238281 -21.371094 L 35.238281 -77.414062 Z M 54.488281 -77.414062 "/></g></g></g><g fill="#000000" fill-opacity="1"><g transform="translate(748.901353, 201.438292)"><g><path d="M 4.527344 0 L 35.238281 0 L 35.238281 -36.65625 L 67.933594 -36.65625 C 75.292969 -36.65625 78.261719 -33.824219 78.546875 -26.464844 C 78.828125 -12.597656 79.113281 -5.378906 81.800781 0 L 113.503906 0 C 110.105469 -6.933594 109.398438 -16.417969 108.972656 -27.597656 C 108.550781 -37.644531 104.871094 -44.015625 95.53125 -46.84375 C 105.859375 -51.230469 111.523438 -60.007812 111.523438 -70.902344 C 111.523438 -88.59375 97.652344 -99.066406 73.453125 -99.066406 L 4.527344 -99.066406 Z M 68.5 -78.40625 C 76.566406 -78.40625 81.234375 -74.582031 81.234375 -67.367188 C 81.234375 -60.289062 76.421875 -56.46875 68.5 -56.46875 L 35.238281 -56.46875 L 35.238281 -78.40625 Z M 68.5 -78.40625 "/></g></g></g><g fill="#000000" fill-opacity="1"><g transform="translate(863.537112, 201.438292)"><g><path d="M 4.527344 0 L 100.484375 0 L 100.484375 -20.519531 L 35.238281 -20.519531 L 35.238281 -40.335938 L 84.347656 -40.335938 L 84.347656 -60.429688 L 35.238281 -60.429688 L 35.238281 -78.121094 L 100.484375 -78.121094 L 100.484375 -99.066406 L 4.527344 -99.066406 Z M 4.527344 0 "/></g></g></g><g fill="#000000" fill-opacity="1"><g transform="translate(966.850783, 201.438292)"><g><path d="M 60.289062 2.121094 C 93.125 2.121094 112.511719 -10.898438 112.511719 -30.003906 C 112.511719 -53.355469 84.914062 -57.316406 62.695312 -60.714844 C 47.550781 -62.980469 34.816406 -64.960938 34.816406 -72.460938 C 34.816406 -77.414062 40.335938 -81.519531 54.769531 -81.519531 C 69.347656 -81.519531 78.972656 -75.714844 81.378906 -65.949219 L 110.8125 -65.949219 C 107.132812 -88.3125 86.332031 -101.191406 53.78125 -101.191406 C 22.21875 -101.191406 3.539062 -88.453125 3.539062 -69.628906 C 3.539062 -46.421875 29.863281 -42.316406 51.941406 -39.203125 C 67.789062 -36.9375 81.378906 -35.097656 81.378906 -27.03125 C 81.378906 -21.792969 74.867188 -17.550781 59.441406 -17.550781 C 44.15625 -17.550781 35.664062 -22.785156 33.398438 -33.683594 L 2.6875 -33.683594 C 6.652344 -10.757812 26.890625 2.121094 60.289062 2.121094 Z M 60.289062 2.121094 "/></g></g></g><g fill="#000000" fill-opacity="1"><g transform="translate(50.151197, 293.933499)"><g><path d="M 1.203125 0 L 20.066406 0 C 26.238281 0 29.816406 -2.859375 29.816406 -7.304688 C 29.816406 -10.316406 28.195312 -12.421875 25.222656 -13.441406 C 27.746094 -14.605469 29.101562 -16.640625 29.101562 -19.238281 C 29.101562 -23.566406 25.597656 -26.351562 19.464844 -26.351562 L 1.203125 -26.351562 Z M 18.144531 -20.894531 C 19.988281 -20.894531 21.121094 -19.988281 21.121094 -18.332031 C 21.121094 -16.640625 19.988281 -15.773438 18.144531 -15.773438 L 9.335938 -15.773438 L 9.335938 -20.894531 Z M 18.597656 -10.652344 C 20.554688 -10.652344 21.722656 -9.710938 21.722656 -7.980469 C 21.722656 -6.210938 20.554688 -5.347656 18.597656 -5.347656 L 9.335938 -5.347656 L 9.335938 -10.652344 Z M 18.597656 -10.652344 "/></g></g></g><g fill="#000000" fill-opacity="1"><g transform="translate(83.315492, 293.933499)"><g><path d="M 9.863281 0.488281 C 12.988281 0.488281 15.511719 -0.640625 17.28125 -2.671875 L 17.28125 0 L 25.148438 0 L 25.148438 -21.007812 L 17.28125 -21.007812 L 17.28125 -6.664062 C 16.339844 -5.535156 14.792969 -4.78125 13.027344 -4.78125 C 10.617188 -4.78125 8.882812 -6.0625 8.882812 -8.773438 L 8.882812 -21.007812 L 1.015625 -21.007812 L 1.015625 -7.679688 C 1.015625 -2.671875 4.59375 0.488281 9.863281 0.488281 Z M 9.863281 0.488281 "/></g></g></g><g fill="#000000" fill-opacity="1"><g transform="translate(112.489624, 293.933499)"><g><path d="M 13.441406 0.640625 C 19.953125 0.640625 24.621094 -2.671875 25.9375 -7.867188 L 18.445312 -7.867188 C 17.65625 -5.496094 15.925781 -4.328125 13.550781 -4.328125 C 10.539062 -4.328125 8.546875 -6.136719 8.246094 -9.601562 L 26.164062 -9.601562 L 26.164062 -10.050781 C 26.164062 -17.355469 20.59375 -21.644531 13.476562 -21.644531 C 6.0625 -21.644531 0.640625 -17.203125 0.640625 -10.503906 C 0.640625 -3.765625 5.949219 0.640625 13.441406 0.640625 Z M 13.476562 -16.828125 C 15.8125 -16.828125 17.617188 -15.511719 18.410156 -13.0625 L 8.546875 -13.0625 C 9.222656 -15.472656 10.992188 -16.828125 13.476562 -16.828125 Z M 13.476562 -16.828125 "/></g></g></g><g fill="#000000" fill-opacity="1"><g transform="translate(142.153126, 293.933499)"><g><path d="M 1.128906 0 L 9.035156 0 L 9.035156 -14.304688 C 9.976562 -15.472656 11.480469 -16.226562 13.289062 -16.226562 C 15.699219 -16.226562 17.390625 -14.871094 17.390625 -12.234375 L 17.390625 0 L 25.261719 0 L 25.261719 -13.289062 C 25.261719 -18.332031 21.683594 -21.496094 16.453125 -21.496094 C 13.363281 -21.496094 10.804688 -20.328125 9.035156 -18.332031 L 9.035156 -21.007812 L 1.128906 -21.007812 Z M 1.128906 0 "/></g></g></g><g fill="#000000" fill-opacity="1"><g transform="translate(171.364902, 293.933499)"><g><path d="M 13.777344 0.640625 C 21.570312 0.640625 26.878906 -3.6875 26.878906 -10.503906 C 26.878906 -17.28125 21.535156 -21.644531 13.777344 -21.644531 C 5.984375 -21.644531 0.640625 -17.28125 0.640625 -10.503906 C 0.640625 -3.6875 5.984375 0.640625 13.777344 0.640625 Z M 13.777344 -4.515625 C 10.503906 -4.515625 8.355469 -6.625 8.355469 -10.503906 C 8.355469 -14.378906 10.503906 -16.453125 13.777344 -16.453125 C 17.054688 -16.453125 19.199219 -14.378906 19.199219 -10.503906 C 19.199219 -6.625 17.054688 -4.515625 13.777344 -4.515625 Z M 13.777344 -4.515625 "/></g></g></g><g fill="#000000" fill-opacity="1"><g transform="translate(201.743616, 293.933499)"><g><path d="M 13.136719 0.566406 C 20.328125 0.566406 24.734375 -2.484375 24.734375 -6.550781 C 24.734375 -11.859375 18.371094 -12.535156 13.515625 -13.175781 C 10.578125 -13.550781 8.207031 -13.929688 8.207031 -15.359375 C 8.207031 -16.261719 9.375 -17.054688 11.859375 -17.054688 C 14.683594 -17.054688 16.488281 -16.148438 17.28125 -14.042969 L 24.433594 -14.042969 C 23.265625 -18.859375 18.484375 -21.570312 11.707031 -21.570312 C 4.929688 -21.570312 0.675781 -18.746094 0.675781 -14.605469 C 0.675781 -9.449219 6.851562 -8.773438 11.632812 -8.132812 C 14.71875 -7.71875 17.203125 -7.339844 17.203125 -5.796875 C 17.203125 -4.742188 16.039062 -3.914062 13.027344 -3.914062 C 10.316406 -3.914062 8.394531 -5.082031 7.832031 -7.265625 L 0.566406 -7.265625 C 1.695312 -2.070312 6.550781 0.566406 13.136719 0.566406 Z M 13.136719 0.566406 "/></g></g></g><g fill="#000000" fill-opacity="1"><g transform="translate(230.014308, 293.933499)"><g/></g></g><g fill="#000000" fill-opacity="1"><g transform="translate(241.345614, 293.933499)"><g><path d="M -0.261719 0 L 8.054688 0 L 10.238281 -5.15625 L 22.476562 -5.15625 L 24.65625 0 L 33.503906 0 L 21.230469 -26.351562 L 12.007812 -26.351562 Z M 16.375 -19.765625 L 20.328125 -10.164062 L 12.347656 -10.164062 Z M 16.375 -19.765625 "/></g></g></g><g fill="#000000" fill-opacity="1"><g transform="translate(277.446065, 293.933499)"><g><path d="M 1.167969 -22.511719 L 8.996094 -22.511719 L 8.996094 -27.292969 L 1.167969 -27.292969 Z M 1.167969 0 L 8.996094 0 L 8.996094 -21.007812 L 1.167969 -21.007812 Z M 1.167969 0 "/></g></g></g><g fill="#000000" fill-opacity="1"><g transform="translate(290.47131, 293.933499)"><g><path d="M 1.128906 0 L 9.035156 0 L 9.035156 -12.835938 C 10.203125 -14.457031 12.574219 -15.320312 15.097656 -15.320312 C 15.847656 -15.320312 16.601562 -15.246094 17.316406 -15.097656 L 17.316406 -21.457031 L 16.941406 -21.457031 C 13.289062 -21.457031 10.691406 -19.914062 9.035156 -17.167969 L 9.035156 -21.007812 L 1.128906 -21.007812 Z M 1.128906 0 "/></g></g></g><g fill="#000000" fill-opacity="1"><g transform="translate(311.251043, 293.933499)"><g><path d="M 13.441406 0.640625 C 19.953125 0.640625 24.621094 -2.671875 25.9375 -7.867188 L 18.445312 -7.867188 C 17.65625 -5.496094 15.925781 -4.328125 13.550781 -4.328125 C 10.539062 -4.328125 8.546875 -6.136719 8.246094 -9.601562 L 26.164062 -9.601562 L 26.164062 -10.050781 C 26.164062 -17.355469 20.59375 -21.644531 13.476562 -21.644531 C 6.0625 -21.644531 0.640625 -17.203125 0.640625 -10.503906 C 0.640625 -3.765625 5.949219 0.640625 13.441406 0.640625 Z M 13.476562 -16.828125 C 15.8125 -16.828125 17.617188 -15.511719 18.410156 -13.0625 L 8.546875 -13.0625 C 9.222656 -15.472656 10.992188 -16.828125 13.476562 -16.828125 Z M 13.476562 -16.828125 "/></g></g></g><g fill="#000000" fill-opacity="1"><g transform="translate(340.914538, 293.933499)"><g><path d="M 13.136719 0.566406 C 20.328125 0.566406 24.734375 -2.484375 24.734375 -6.550781 C 24.734375 -11.859375 18.371094 -12.535156 13.515625 -13.175781 C 10.578125 -13.550781 8.207031 -13.929688 8.207031 -15.359375 C 8.207031 -16.261719 9.375 -17.054688 11.859375 -17.054688 C 14.683594 -17.054688 16.488281 -16.148438 17.28125 -14.042969 L 24.433594 -14.042969 C 23.265625 -18.859375 18.484375 -21.570312 11.707031 -21.570312 C 4.929688 -21.570312 0.675781 -18.746094 0.675781 -14.605469 C 0.675781 -9.449219 6.851562 -8.773438 11.632812 -8.132812 C 14.71875 -7.71875 17.203125 -7.339844 17.203125 -5.796875 C 17.203125 -4.742188 16.039062 -3.914062 13.027344 -3.914062 C 10.316406 -3.914062 8.394531 -5.082031 7.832031 -7.265625 L 0.566406 -7.265625 C 1.695312 -2.070312 6.550781 0.566406 13.136719 0.566406 Z M 13.136719 0.566406 "/></g></g></g><g fill="#000000" fill-opacity="1"><g transform="translate(369.173881, 293.933499)"><g/></g></g><g fill="#000000" fill-opacity="1"><g transform="translate(380.505192, 293.933499)"><g/></g></g><g fill="#000000" fill-opacity="1"><g transform="translate(391.836502, 293.933499)"><g/></g></g><g fill="#000000" fill-opacity="1"><g transform="translate(403.167813, 293.933499)"><g/></g></g><g fill="#000000" fill-opacity="1"><g transform="translate(414.496756, 293.933499)"><g><path d="M 6.851562 0 L 14.90625 0 L 14.90625 -26.351562 L 8.960938 -26.351562 C 7.941406 -24.394531 5.15625 -22.585938 0.339844 -22.476562 L 0.339844 -18.257812 L 6.851562 -18.257812 Z M 6.851562 0 "/></g></g></g><g fill="#000000" fill-opacity="1"><g transform="translate(433.507256, 293.933499)"><g><path d="M 15.886719 0.640625 C 24.28125 0.640625 29.851562 -3.425781 29.851562 -8.996094 C 29.851562 -14.042969 24.882812 -17.429688 17.355469 -17.429688 C 13.328125 -17.429688 10.238281 -16.226562 8.621094 -14.117188 C 9.109375 -19.273438 11.558594 -21.835938 15.660156 -21.835938 C 18.445312 -21.835938 20.292969 -20.707031 21.15625 -18.632812 L 29.589844 -18.632812 C 28.121094 -23.867188 22.585938 -26.992188 15.699219 -26.992188 C 6.589844 -26.992188 0.675781 -21.757812 0.675781 -12.648438 C 0.675781 -3.953125 6.398438 0.640625 15.886719 0.640625 Z M 15.585938 -4.554688 C 11.78125 -4.554688 9.410156 -6.136719 9.410156 -8.808594 C 9.410156 -11.332031 11.746094 -12.949219 15.546875 -12.949219 C 19.3125 -12.949219 21.683594 -11.332031 21.683594 -8.695312 C 21.683594 -6.136719 19.351562 -4.554688 15.585938 -4.554688 Z M 15.585938 -4.554688 "/></g></g></g><g fill="#000000" fill-opacity="1"><g transform="translate(466.859767, 293.933499)"><g/></g></g><g fill="#000000" fill-opacity="1"><g transform="translate(478.19108, 293.933499)"><g><path d="M 8.847656 0.453125 C 12.160156 0.453125 14.90625 -0.488281 16.828125 -2.371094 L 16.828125 0 L 24.582031 0 L 24.582031 -13.027344 C 24.582031 -18.558594 20.667969 -21.570312 13.515625 -21.570312 C 6.890625 -21.570312 2.03125 -18.21875 1.054688 -13.441406 L 8.207031 -13.441406 C 8.695312 -15.433594 10.429688 -16.789062 13.214844 -16.789062 C 15.546875 -16.789062 16.789062 -16 16.789062 -14.984375 C 16.789062 -13.890625 15.699219 -13.136719 11.707031 -12.308594 C 6.625 -11.257812 0.566406 -10.429688 0.566406 -5.496094 C 0.566406 -1.957031 3.839844 0.453125 8.847656 0.453125 Z M 8.132812 -5.910156 C 8.132812 -7.492188 10.125 -7.980469 12.761719 -8.621094 C 14.34375 -9.035156 15.8125 -9.335938 16.828125 -9.902344 L 16.828125 -5.910156 C 15.511719 -4.628906 13.363281 -3.914062 11.332031 -3.914062 C 9.261719 -3.914062 8.132812 -4.78125 8.132812 -5.910156 Z M 8.132812 -5.910156 "/></g></g></g><g fill="#000000" fill-opacity="1"><g transform="translate(506.762922, 293.933499)"><g><path d="M 1.167969 0 L 8.996094 0 L 8.996094 -26.351562 L 1.167969 -26.351562 Z M 1.167969 0 "/></g></g></g><g fill="#000000" fill-opacity="1"><g transform="translate(519.788173, 293.933499)"><g/></g></g><g fill="#000000" fill-opacity="1"><g transform="translate(531.119486, 293.933499)"><g><path d="M 1.089844 0 L 27.480469 0 L 27.480469 -5.570312 L 11.21875 -5.308594 C 14.230469 -7.078125 16.675781 -8.507812 18.632812 -9.789062 C 26.730469 -14.042969 27.40625 -16.488281 27.40625 -19.160156 C 27.40625 -23.640625 22.398438 -26.992188 15.246094 -26.992188 C 6.890625 -26.992188 1.769531 -23.113281 0.488281 -16.5625 L 8.507812 -16.5625 C 9.335938 -19.839844 11.59375 -21.421875 14.792969 -21.421875 C 17.542969 -21.421875 19.050781 -20.101562 19.050781 -18.632812 C 19.050781 -16.941406 18.21875 -15.773438 12.460938 -12.273438 C 9.863281 -10.578125 6.175781 -8.394531 1.089844 -5.347656 Z M 1.089844 0 "/></g></g></g><g fill="#000000" fill-opacity="1"><g transform="translate(562.326338, 293.933499)"><g><path d="M 16.039062 0.640625 C 24.09375 0.640625 29.4375 -2.75 29.4375 -7.605469 C 29.4375 -10.539062 27.707031 -12.761719 23.867188 -13.703125 C 26.992188 -14.71875 28.648438 -16.789062 28.648438 -19.3125 C 28.648438 -23.941406 23.679688 -26.992188 15.8125 -26.992188 C 7.265625 -26.992188 1.996094 -23.191406 0.789062 -17.46875 L 8.734375 -17.46875 C 9.5625 -20.292969 11.894531 -21.683594 15.585938 -21.683594 C 18.632812 -21.683594 20.480469 -20.480469 20.480469 -18.671875 C 20.480469 -17.054688 19.425781 -15.960938 17.316406 -15.960938 L 11.59375 -15.960938 L 11.59375 -10.992188 L 17.46875 -10.992188 C 19.878906 -10.992188 21.121094 -9.863281 21.121094 -8.019531 C 21.121094 -5.910156 19.050781 -4.628906 15.847656 -4.628906 C 11.707031 -4.628906 9.449219 -6.324219 8.582031 -10.015625 L 0.640625 -10.015625 C 1.617188 -3.273438 6.964844 0.640625 16.039062 0.640625 Z M 16.039062 0.640625 "/></g></g></g><g fill="#000000" fill-opacity="1"><g transform="translate(595.340061, 293.933499)"><g/></g></g><g fill="#000000" fill-opacity="1"><g transform="translate(606.671367, 293.933499)"><g><path d="M 11.332031 0.488281 C 14.644531 0.488281 17.390625 -0.828125 19.199219 -3.199219 L 19.199219 0 L 27.066406 0 L 27.066406 -26.351562 L 19.199219 -26.351562 L 19.199219 -17.804688 C 17.390625 -20.179688 14.644531 -21.496094 11.332031 -21.496094 C 4.96875 -21.496094 0.640625 -17.054688 0.640625 -10.503906 C 0.640625 -3.839844 4.929688 0.488281 11.332031 0.488281 Z M 13.742188 -4.515625 C 10.464844 -4.515625 8.355469 -6.625 8.355469 -10.539062 C 8.355469 -14.378906 10.464844 -16.453125 13.742188 -16.453125 C 17.089844 -16.453125 19.238281 -14.378906 19.238281 -10.503906 C 19.238281 -6.625 17.089844 -4.515625 13.742188 -4.515625 Z M 13.742188 -4.515625 "/></g></g></g><g fill="#000000" fill-opacity="1"><g transform="translate(637.765299, 293.933499)"><g><path d="M 13.441406 0.640625 C 19.953125 0.640625 24.621094 -2.671875 25.9375 -7.867188 L 18.445312 -7.867188 C 17.65625 -5.496094 15.925781 -4.328125 13.550781 -4.328125 C 10.539062 -4.328125 8.546875 -6.136719 8.246094 -9.601562 L 26.164062 -9.601562 L 26.164062 -10.050781 C 26.164062 -17.355469 20.59375 -21.644531 13.476562 -21.644531 C 6.0625 -21.644531 0.640625 -17.203125 0.640625 -10.503906 C 0.640625 -3.765625 5.949219 0.640625 13.441406 0.640625 Z M 13.476562 -16.828125 C 15.8125 -16.828125 17.617188 -15.511719 18.410156 -13.0625 L 8.546875 -13.0625 C 9.222656 -15.472656 10.992188 -16.828125 13.476562 -16.828125 Z M 13.476562 -16.828125 "/></g></g></g><g fill="#000000" fill-opacity="1"><g transform="translate(667.428794, 293.933499)"><g/></g></g><g fill="#000000" fill-opacity="1"><g transform="translate(678.760114, 293.933499)"><g><path d="M 8.847656 0.453125 C 12.160156 0.453125 14.90625 -0.488281 16.828125 -2.371094 L 16.828125 0 L 24.582031 0 L 24.582031 -13.027344 C 24.582031 -18.558594 20.667969 -21.570312 13.515625 -21.570312 C 6.890625 -21.570312 2.03125 -18.21875 1.054688 -13.441406 L 8.207031 -13.441406 C 8.695312 -15.433594 10.429688 -16.789062 13.214844 -16.789062 C 15.546875 -16.789062 16.789062 -16 16.789062 -14.984375 C 16.789062 -13.890625 15.699219 -13.136719 11.707031 -12.308594 C 6.625 -11.257812 0.566406 -10.429688 0.566406 -5.496094 C 0.566406 -1.957031 3.839844 0.453125 8.847656 0.453125 Z M 8.132812 -5.910156 C 8.132812 -7.492188 10.125 -7.980469 12.761719 -8.621094 C 14.34375 -9.035156 15.8125 -9.335938 16.828125 -9.902344 L 16.828125 -5.910156 C 15.511719 -4.628906 13.363281 -3.914062 11.332031 -3.914062 C 9.261719 -3.914062 8.132812 -4.78125 8.132812 -5.910156 Z M 8.132812 -5.910156 "/></g></g></g><g fill="#000000" fill-opacity="1"><g transform="translate(707.331956, 293.933499)"><g><path d="M 11.332031 -0.0742188 C 14.644531 -0.0742188 17.390625 -1.355469 19.199219 -3.652344 L 19.199219 -0.828125 C 19.199219 1.882812 17.242188 3.199219 14.078125 3.199219 C 11.257812 3.199219 9.75 2.445312 9.109375 0.902344 L 1.316406 0.902344 C 2.558594 4.929688 7.152344 7.304688 14.078125 7.304688 C 22.285156 7.304688 27.066406 4.140625 27.066406 -1.84375 L 27.066406 -21.007812 L 19.199219 -21.007812 L 19.199219 -17.882812 C 17.390625 -20.214844 14.644531 -21.496094 11.332031 -21.496094 C 4.96875 -21.496094 0.640625 -17.203125 0.640625 -10.765625 C 0.640625 -4.292969 4.929688 -0.0742188 11.332031 -0.0742188 Z M 13.742188 -4.96875 C 10.464844 -4.96875 8.355469 -7.003906 8.355469 -10.765625 C 8.355469 -14.492188 10.464844 -16.527344 13.742188 -16.527344 C 17.128906 -16.527344 19.238281 -14.492188 19.238281 -10.730469 C 19.238281 -7.003906 17.128906 -4.96875 13.742188 -4.96875 Z M 13.742188 -4.96875 "/></g></g></g><g fill="#000000" fill-opacity="1"><g transform="translate(738.425889, 293.933499)"><g><path d="M 13.777344 0.640625 C 21.570312 0.640625 26.878906 -3.6875 26.878906 -10.503906 C 26.878906 -17.28125 21.535156 -21.644531 13.777344 -21.644531 C 5.984375 -21.644531 0.640625 -17.28125 0.640625 -10.503906 C 0.640625 -3.6875 5.984375 0.640625 13.777344 0.640625 Z M 13.777344 -4.515625 C 10.503906 -4.515625 8.355469 -6.625 8.355469 -10.503906 C 8.355469 -14.378906 10.503906 -16.453125 13.777344 -16.453125 C 17.054688 -16.453125 19.199219 -14.378906 19.199219 -10.503906 C 19.199219 -6.625 17.054688 -4.515625 13.777344 -4.515625 Z M 13.777344 -4.515625 "/></g></g></g><g fill="#000000" fill-opacity="1"><g transform="translate(768.804603, 293.933499)"><g><path d="M 13.136719 0.566406 C 20.328125 0.566406 24.734375 -2.484375 24.734375 -6.550781 C 24.734375 -11.859375 18.371094 -12.535156 13.515625 -13.175781 C 10.578125 -13.550781 8.207031 -13.929688 8.207031 -15.359375 C 8.207031 -16.261719 9.375 -17.054688 11.859375 -17.054688 C 14.683594 -17.054688 16.488281 -16.148438 17.28125 -14.042969 L 24.433594 -14.042969 C 23.265625 -18.859375 18.484375 -21.570312 11.707031 -21.570312 C 4.929688 -21.570312 0.675781 -18.746094 0.675781 -14.605469 C 0.675781 -9.449219 6.851562 -8.773438 11.632812 -8.132812 C 14.71875 -7.71875 17.203125 -7.339844 17.203125 -5.796875 C 17.203125 -4.742188 16.039062 -3.914062 13.027344 -3.914062 C 10.316406 -3.914062 8.394531 -5.082031 7.832031 -7.265625 L 0.566406 -7.265625 C 1.695312 -2.070312 6.550781 0.566406 13.136719 0.566406 Z M 13.136719 0.566406 "/></g></g></g><g fill="#000000" fill-opacity="1"><g transform="translate(797.075308, 293.933499)"><g><path d="M 13.214844 0 L 21.871094 0 L 21.871094 -5.042969 L 17.242188 -5.042969 C 15.246094 -5.042969 14.378906 -5.683594 14.378906 -7.078125 L 14.378906 -16.113281 L 21.871094 -16.113281 L 21.871094 -21.007812 L 14.378906 -21.007812 L 14.378906 -25.335938 L 6.625 -25.335938 L 6.625 -21.007812 L 0.527344 -21.007812 L 0.527344 -16.113281 L 6.625 -16.113281 L 6.625 -5.871094 C 6.625 -2.03125 8.695312 0 13.214844 0 Z M 13.214844 0 "/></g></g></g><g fill="#000000" fill-opacity="1"><g transform="translate(822.33457, 293.933499)"><g><path d="M 13.777344 0.640625 C 21.570312 0.640625 26.878906 -3.6875 26.878906 -10.503906 C 26.878906 -17.28125 21.535156 -21.644531 13.777344 -21.644531 C 5.984375 -21.644531 0.640625 -17.28125 0.640625 -10.503906 C 0.640625 -3.6875 5.984375 0.640625 13.777344 0.640625 Z M 13.777344 -4.515625 C 10.503906 -4.515625 8.355469 -6.625 8.355469 -10.503906 C 8.355469 -14.378906 10.503906 -16.453125 13.777344 -16.453125 C 17.054688 -16.453125 19.199219 -14.378906 19.199219 -10.503906 C 19.199219 -6.625 17.054688 -4.515625 13.777344 -4.515625 Z M 13.777344 -4.515625 "/></g></g></g><g fill="#000000" fill-opacity="1"><g transform="translate(852.70181, 293.933499)"><g/></g></g><g fill="#000000" fill-opacity="1"><g transform="translate(864.03312, 293.933499)"><g/></g></g><g fill="#000000" fill-opacity="1"><g transform="translate(875.363247, 293.933499)"><g><path d="M 11.332031 0.488281 C 14.644531 0.488281 17.390625 -0.828125 19.199219 -3.199219 L 19.199219 0 L 27.066406 0 L 27.066406 -26.351562 L 19.199219 -26.351562 L 19.199219 -17.804688 C 17.390625 -20.179688 14.644531 -21.496094 11.332031 -21.496094 C 4.96875 -21.496094 0.640625 -17.054688 0.640625 -10.503906 C 0.640625 -3.839844 4.929688 0.488281 11.332031 0.488281 Z M 13.742188 -4.515625 C 10.464844 -4.515625 8.355469 -6.625 8.355469 -10.539062 C 8.355469 -14.378906 10.464844 -16.453125 13.742188 -16.453125 C 17.089844 -16.453125 19.238281 -14.378906 19.238281 -10.503906 C 19.238281 -6.625 17.089844 -4.515625 13.742188 -4.515625 Z M 13.742188 -4.515625 "/></g></g></g><g fill="#000000" fill-opacity="1"><g transform="translate(906.457183, 293.933499)"><g><path d="M 13.441406 0.640625 C 19.953125 0.640625 24.621094 -2.671875 25.9375 -7.867188 L 18.445312 -7.867188 C 17.65625 -5.496094 15.925781 -4.328125 13.550781 -4.328125 C 10.539062 -4.328125 8.546875 -6.136719 8.246094 -9.601562 L 26.164062 -9.601562 L 26.164062 -10.050781 C 26.164062 -17.355469 20.59375 -21.644531 13.476562 -21.644531 C 6.0625 -21.644531 0.640625 -17.203125 0.640625 -10.503906 C 0.640625 -3.765625 5.949219 0.640625 13.441406 0.640625 Z M 13.476562 -16.828125 C 15.8125 -16.828125 17.617188 -15.511719 18.410156 -13.0625 L 8.546875 -13.0625 C 9.222656 -15.472656 10.992188 -16.828125 13.476562 -16.828125 Z M 13.476562 -16.828125 "/></g></g></g><g fill="#000000" fill-opacity="1"><g transform="translate(936.120681, 293.933499)"><g/></g></g><g fill="#000000" fill-opacity="1"><g transform="translate(947.451994, 293.933499)"><g><path d="M 1.089844 0 L 27.480469 0 L 27.480469 -5.570312 L 11.21875 -5.308594 C 14.230469 -7.078125 16.675781 -8.507812 18.632812 -9.789062 C 26.730469 -14.042969 27.40625 -16.488281 27.40625 -19.160156 C 27.40625 -23.640625 22.398438 -26.992188 15.246094 -26.992188 C 6.890625 -26.992188 1.769531 -23.113281 0.488281 -16.5625 L 8.507812 -16.5625 C 9.335938 -19.839844 11.59375 -21.421875 14.792969 -21.421875 C 17.542969 -21.421875 19.050781 -20.101562 19.050781 -18.632812 C 19.050781 -16.941406 18.21875 -15.773438 12.460938 -12.273438 C 9.863281 -10.578125 6.175781 -8.394531 1.089844 -5.347656 Z M 1.089844 0 "/></g></g></g><g fill="#000000" fill-opacity="1"><g transform="translate(978.658846, 293.933499)"><g><path d="M 16.074219 0.640625 C 25.261719 0.640625 31.285156 -4.96875 31.285156 -13.175781 C 31.285156 -21.382812 25.261719 -26.992188 16.074219 -26.992188 C 6.777344 -26.992188 0.675781 -21.382812 0.675781 -13.175781 C 0.675781 -4.96875 6.777344 0.640625 16.074219 0.640625 Z M 16.074219 -5.042969 C 11.671875 -5.042969 8.996094 -8.019531 8.996094 -13.175781 C 8.996094 -18.332031 11.671875 -21.308594 16.074219 -21.308594 C 20.292969 -21.308594 23 -18.296875 23 -13.175781 C 23 -8.019531 20.292969 -5.042969 16.074219 -5.042969 Z M 16.074219 -5.042969 "/></g></g></g><g fill="#000000" fill-opacity="1"><g transform="translate(1013.47944, 293.933499)"><g><path d="M 1.089844 0 L 27.480469 0 L 27.480469 -5.570312 L 11.21875 -5.308594 C 14.230469 -7.078125 16.675781 -8.507812 18.632812 -9.789062 C 26.730469 -14.042969 27.40625 -16.488281 27.40625 -19.160156 C 27.40625 -23.640625 22.398438 -26.992188 15.246094 -26.992188 C 6.890625 -26.992188 1.769531 -23.113281 0.488281 -16.5625 L 8.507812 -16.5625 C 9.335938 -19.839844 11.59375 -21.421875 14.792969 -21.421875 C 17.542969 -21.421875 19.050781 -20.101562 19.050781 -18.632812 C 19.050781 -16.941406 18.21875 -15.773438 12.460938 -12.273438 C 9.863281 -10.578125 6.175781 -8.394531 1.089844 -5.347656 Z M 1.089844 0 "/></g></g></g><g fill="#000000" fill-opacity="1"><g transform="translate(1044.686292, 293.933499)"><g><path d="M 16.039062 0.640625 C 24.09375 0.640625 29.4375 -2.75 29.4375 -7.605469 C 29.4375 -10.539062 27.707031 -12.761719 23.867188 -13.703125 C 26.992188 -14.71875 28.648438 -16.789062 28.648438 -19.3125 C 28.648438 -23.941406 23.679688 -26.992188 15.8125 -26.992188 C 7.265625 -26.992188 1.996094 -23.191406 0.789062 -17.46875 L 8.734375 -17.46875 C 9.5625 -20.292969 11.894531 -21.683594 15.585938 -21.683594 C 18.632812 -21.683594 20.480469 -20.480469 20.480469 -18.671875 C 20.480469 -17.054688 19.425781 -15.960938 17.316406 -15.960938 L 11.59375 -15.960938 L 11.59375 -10.992188 L 17.46875 -10.992188 C 19.878906 -10.992188 21.121094 -9.863281 21.121094 -8.019531 C 21.121094 -5.910156 19.050781 -4.628906 15.847656 -4.628906 C 11.707031 -4.628906 9.449219 -6.324219 8.582031 -10.015625 L 0.640625 -10.015625 C 1.617188 -3.273438 6.964844 0.640625 16.039062 0.640625 Z M 16.039062 0.640625 "/></g></g></g><path stroke-linecap="butt" transform="matrix(3.743199, 0, 0, 3.97351, 374.793769, 288.85003)" fill="none" stroke-linejoin="miter" d="M -0.000213758 0.000385721 L 8.616456 0.000385721 " stroke="#000000" stroke-width="1" stroke-opacity="1" stroke-miterlimit="4"/></svg>